<?xml version="1.0" encoding="UTF-8" standalone="no"?><svg xmlns="http://www.w3.org/2000/svg" xmlns:xlink="http://www.w3.org/1999/xlink" contentStyleType="text/css" height="308px" preserveAspectRatio="none" style="width:547px;height:308px;background:#FFFFFF;" version="1.1" viewBox="0 0 547 308" width="547px" zoomAndPan="magnify"><defs/><g><line style="stroke:#181818;stroke-width:0.5;stroke-dasharray:5.0,5.0;" x1="41" x2="41" y1="36.2969" y2="273.3594"/><line style="stroke:#181818;stroke-width:0.5;stroke-dasharray:5.0,5.0;" x1="226" x2="226" y1="36.2969" y2="273.3594"/><line style="stroke:#181818;stroke-width:0.5;stroke-dasharray:5.0,5.0;" x1="329" x2="329" y1="36.2969" y2="273.3594"/><line style="stroke:#181818;stroke-width:0.5;stroke-dasharray:5.0,5.0;" x1="396" x2="396" y1="36.2969" y2="273.3594"/><rect fill="#E2E2F0" height="30.2969" rx="2.5" ry="2.5" style="stroke:#181818;stroke-width:0.5;" width="72" x="5" y="5"/><text fill="#000000" font-family="sans-serif" font-size="14" lengthAdjust="spacing" textLength="58" x="12" y="24.9951">Program</text><rect fill="#E2E2F0" height="30.2969" rx="2.5" ry="2.5" style="stroke:#181818;stroke-width:0.5;" width="72" x="5" y="272.3594"/><text fill="#000000" font-family="sans-serif" font-size="14" lengthAdjust="spacing" textLength="58" x="12" y="292.3545">Program</text><rect fill="#E2E2F0" height="30.2969" rx="2.5" ry="2.5" style="stroke:#181818;stroke-width:0.5;" width="132" x="160" y="5"/><text fill="#000000" font-family="sans-serif" font-size="14" lengthAdjust="spacing" textLength="118" x="167" y="24.9951">ServiceCollection</text><rect fill="#E2E2F0" height="30.2969" rx="2.5" ry="2.5" style="stroke:#181818;stroke-width:0.5;" width="132" x="160" y="272.3594"/><text fill="#000000" font-family="sans-serif" font-size="14" lengthAdjust="spacing" textLength="118" x="167" y="292.3545">ServiceCollection</text><rect fill="#E2E2F0" height="30.2969" rx="2.5" ry="2.5" style="stroke:#181818;stroke-width:0.5;" width="54" x="302" y="5"/><text fill="#000000" font-family="sans-serif" font-size="14" lengthAdjust="spacing" textLength="40" x="309" y="24.9951">JwtUtil</text><rect fill="#E2E2F0" height="30.2969" rx="2.5" ry="2.5" style="stroke:#181818;stroke-width:0.5;" width="54" x="302" y="272.3594"/><text fill="#000000" font-family="sans-serif" font-size="14" lengthAdjust="spacing" textLength="40" x="309" y="292.3545">JwtUtil</text><rect fill="#E2E2F0" height="30.2969" rx="2.5" ry="2.5" style="stroke:#181818;stroke-width:0.5;" width="60" x="366" y="5"/><text fill="#000000" font-family="sans-serif" font-size="14" lengthAdjust="spacing" textLength="46" x="373" y="24.9951">OtpUtil</text><rect fill="#E2E2F0" height="30.2969" rx="2.5" ry="2.5" style="stroke:#181818;stroke-width:0.5;" width="60" x="366" y="272.3594"/><text fill="#000000" font-family="sans-serif" font-size="14" lengthAdjust="spacing" textLength="46" x="373" y="292.3545">OtpUtil</text><polygon fill="#181818" points="214,63.4297,224,67.4297,214,71.4297,218,67.4297" style="stroke:#181818;stroke-width:1.0;"/><line style="stroke:#181818;stroke-width:1.0;" x1="41" x2="220" y1="67.4297" y2="67.4297"/><text fill="#000000" font-family="sans-serif" font-size="13" lengthAdjust="spacing" textLength="155" x="48" y="62.3638">AddSingleton&lt;JwtUtil&gt;()</text><polygon fill="#181818" points="214,92.5625,224,96.5625,214,100.5625,218,96.5625" style="stroke:#181818;stroke-width:1.0;"/><line style="stroke:#181818;stroke-width:1.0;" x1="41" x2="220" y1="96.5625" y2="96.5625"/><text fill="#000000" font-family="sans-serif" font-size="13" lengthAdjust="spacing" textLength="161" x="48" y="91.4966">AddSingleton&lt;OtpUtil&gt;()</text><path d="M334,109.5625 L334,149.5625 L473,149.5625 L473,119.5625 L463,109.5625 L334,109.5625 " fill="#FEFFDD" style="stroke:#181818;stroke-width:0.5;"/><path d="M463,109.5625 L463,119.5625 L473,119.5625 L463,109.5625 " fill="#FEFFDD" style="stroke:#181818;stroke-width:0.5;"/><text fill="#000000" font-family="sans-serif" font-size="13" lengthAdjust="spacing" textLength="118" x="340" y="126.6294">Single instance for</text><text fill="#000000" font-family="sans-serif" font-size="13" lengthAdjust="spacing" textLength="110" x="340" y="141.7622">entire application</text><path d="M401,159.8281 L401,199.8281 L540,199.8281 L540,169.8281 L530,159.8281 L401,159.8281 " fill="#FEFFDD" style="stroke:#181818;stroke-width:0.5;"/><path d="M530,159.8281 L530,169.8281 L540,169.8281 L530,159.8281 " fill="#FEFFDD" style="stroke:#181818;stroke-width:0.5;"/><text fill="#000000" font-family="sans-serif" font-size="13" lengthAdjust="spacing" textLength="118" x="407" y="176.895">Single instance for</text><text fill="#000000" font-family="sans-serif" font-size="13" lengthAdjust="spacing" textLength="110" x="407" y="192.0278">entire application</text><polygon fill="#181818" points="52,222.2266,42,226.2266,52,230.2266,48,226.2266" style="stroke:#181818;stroke-width:1.0;"/><line style="stroke:#181818;stroke-width:1.0;stroke-dasharray:2.0,2.0;" x1="46" x2="328" y1="226.2266" y2="226.2266"/><text fill="#000000" font-family="sans-serif" font-size="13" lengthAdjust="spacing" textLength="123" x="58" y="221.1606">Use same instance</text><polygon fill="#181818" points="52,251.3594,42,255.3594,52,259.3594,48,255.3594" style="stroke:#181818;stroke-width:1.0;"/><line style="stroke:#181818;stroke-width:1.0;stroke-dasharray:2.0,2.0;" x1="46" x2="395" y1="255.3594" y2="255.3594"/><text fill="#000000" font-family="sans-serif" font-size="13" lengthAdjust="spacing" textLength="123" x="58" y="250.2935">Use same instance</text><!--MD5=[23db81f4a20a8b1936761305e1247ed2]
@startuml
participant Program
participant ServiceCollection
participant JwtUtil
participant OtpUtil

Program -> ServiceCollection : AddSingleton<JwtUtil>()
Program -> ServiceCollection : AddSingleton<OtpUtil>()
note right of JwtUtil : Single instance for\nentire application
note right of OtpUtil : Single instance for\nentire application
JwtUtil - -> Program : Use same instance
OtpUtil - -> Program : Use same instance
@enduml

PlantUML version 1.2022.7(Mon Aug 22 17:01:30 UTC 2022)
(GPL source distribution)
Java Runtime: OpenJDK Runtime Environment
JVM: OpenJDK 64-Bit Server VM
Default Encoding: UTF-8
Language: en
Country: null
--></g></svg>